<mxfile host="app.diagrams.net" modified="2021-10-09T16:00:33.955Z" agent="5.0 (Windows NT 10.0; Win64; x64) AppleWebKit/537.36 (KHTML, like Gecko) Chrome/94.0.4606.71 Safari/537.36" etag="eRrNNLCpU31mbiVL5MMN" version="15.5.0" type="github">
  <diagram id="o3XYfxjtct3CZA10SaWG" name="‫עמוד-1‬">
    <mxGraphModel dx="759" dy="482" grid="1" gridSize="10" guides="1" tooltips="1" connect="1" arrows="1" fold="1" page="1" pageScale="1" pageWidth="827" pageHeight="1169" math="0" shadow="0">
      <root>
        <mxCell id="0" />
        <mxCell id="1" parent="0" />
        <mxCell id="grLJAO_GZmSJXpPG2jDG-41" value="" style="edgeStyle=orthogonalEdgeStyle;rounded=0;orthogonalLoop=1;jettySize=auto;html=1;fontColor=#000000;" edge="1" parent="1" source="grLJAO_GZmSJXpPG2jDG-1" target="grLJAO_GZmSJXpPG2jDG-3">
          <mxGeometry relative="1" as="geometry" />
        </mxCell>
        <mxCell id="grLJAO_GZmSJXpPG2jDG-44" value="" style="edgeStyle=orthogonalEdgeStyle;rounded=0;orthogonalLoop=1;jettySize=auto;html=1;fontColor=#000000;" edge="1" parent="1" source="grLJAO_GZmSJXpPG2jDG-1" target="grLJAO_GZmSJXpPG2jDG-14">
          <mxGeometry relative="1" as="geometry" />
        </mxCell>
        <mxCell id="grLJAO_GZmSJXpPG2jDG-1" value="לחיצה על יום&amp;nbsp;" style="rounded=1;whiteSpace=wrap;html=1;" vertex="1" parent="1">
          <mxGeometry x="231.50704089506172" y="30" width="120" height="60" as="geometry" />
        </mxCell>
        <mxCell id="grLJAO_GZmSJXpPG2jDG-39" value="" style="edgeStyle=orthogonalEdgeStyle;rounded=0;orthogonalLoop=1;jettySize=auto;html=1;fontColor=#000000;" edge="1" parent="1" source="grLJAO_GZmSJXpPG2jDG-3" target="grLJAO_GZmSJXpPG2jDG-17">
          <mxGeometry relative="1" as="geometry">
            <Array as="points">
              <mxPoint x="220" y="130" />
            </Array>
          </mxGeometry>
        </mxCell>
        <mxCell id="grLJAO_GZmSJXpPG2jDG-42" value="" style="edgeStyle=orthogonalEdgeStyle;rounded=0;orthogonalLoop=1;jettySize=auto;html=1;fontColor=#000000;" edge="1" parent="1" source="grLJAO_GZmSJXpPG2jDG-3" target="grLJAO_GZmSJXpPG2jDG-4">
          <mxGeometry relative="1" as="geometry">
            <Array as="points">
              <mxPoint x="30" y="130" />
            </Array>
          </mxGeometry>
        </mxCell>
        <mxCell id="grLJAO_GZmSJXpPG2jDG-3" value="אין תאריך&amp;nbsp;נבחר" style="rounded=1;whiteSpace=wrap;html=1;" vertex="1" parent="1">
          <mxGeometry x="59.995632716049386" y="100" width="120" height="60" as="geometry" />
        </mxCell>
        <mxCell id="grLJAO_GZmSJXpPG2jDG-47" value="" style="edgeStyle=orthogonalEdgeStyle;rounded=0;orthogonalLoop=1;jettySize=auto;html=1;fontColor=#000000;" edge="1" parent="1" source="grLJAO_GZmSJXpPG2jDG-4" target="grLJAO_GZmSJXpPG2jDG-23">
          <mxGeometry relative="1" as="geometry" />
        </mxCell>
        <mxCell id="grLJAO_GZmSJXpPG2jDG-4" value="אם היום לא פנוי או שהוא &lt;br&gt;בעבר" style="rounded=1;whiteSpace=wrap;html=1;" vertex="1" parent="1">
          <mxGeometry y="180" width="120" height="60" as="geometry" />
        </mxCell>
        <mxCell id="grLJAO_GZmSJXpPG2jDG-45" value="" style="edgeStyle=orthogonalEdgeStyle;rounded=0;orthogonalLoop=1;jettySize=auto;html=1;fontColor=#000000;" edge="1" parent="1" source="grLJAO_GZmSJXpPG2jDG-14" target="grLJAO_GZmSJXpPG2jDG-29">
          <mxGeometry relative="1" as="geometry">
            <Array as="points">
              <mxPoint x="500" y="230" />
              <mxPoint x="500" y="230" />
            </Array>
          </mxGeometry>
        </mxCell>
        <mxCell id="grLJAO_GZmSJXpPG2jDG-14" value="יש תאריך נבחר" style="whiteSpace=wrap;html=1;rounded=1;" vertex="1" parent="1">
          <mxGeometry x="440.00352044753083" y="100" width="120" height="60" as="geometry" />
        </mxCell>
        <mxCell id="grLJAO_GZmSJXpPG2jDG-19" value="&lt;div style=&quot;color: rgb(248 , 248 , 242) ; background-color: rgb(40 , 41 , 35) ; font-family: &amp;#34;consolas&amp;#34; , &amp;#34;courier new&amp;#34; , monospace ; font-size: 14px ; line-height: 19px&quot;&gt;&lt;div&gt;&lt;span style=&quot;color: #66d9ef ; font-style: italic&quot;&gt;const&lt;/span&gt;&amp;nbsp;d&amp;nbsp;&lt;span style=&quot;color: #f92672&quot;&gt;=&lt;/span&gt;&amp;nbsp;&lt;span style=&quot;color: #f92672&quot;&gt;new&lt;/span&gt;&amp;nbsp;&lt;span style=&quot;color: #66d9ef ; font-style: italic&quot;&gt;Date&lt;/span&gt;(dayOb.year,&amp;nbsp;dayOb.monthIndex,&amp;nbsp;dayOb.num,&amp;nbsp;&lt;span style=&quot;color: #ae81ff&quot;&gt;13&lt;/span&gt;,&amp;nbsp;&lt;span style=&quot;color: #ae81ff&quot;&gt;30&lt;/span&gt;);&lt;/div&gt;&lt;div&gt;&lt;span style=&quot;color: #fd971f&quot;&gt;this&lt;/span&gt;.ordersService._newOrder.ShippingDate&amp;nbsp;&lt;span style=&quot;color: #f92672&quot;&gt;=&lt;/span&gt;&amp;nbsp;d.&lt;span style=&quot;color: #a6e22e&quot;&gt;toISOString&lt;/span&gt;();&lt;/div&gt;&lt;div&gt;&lt;span style=&quot;color: #fd971f&quot;&gt;this&lt;/span&gt;._el&amp;nbsp;&lt;span style=&quot;color: #f92672&quot;&gt;=&lt;/span&gt;&amp;nbsp;e.target;&lt;/div&gt;&lt;div&gt;&lt;span style=&quot;color: #fd971f&quot;&gt;this&lt;/span&gt;._el.className&amp;nbsp;&lt;span style=&quot;color: #f92672&quot;&gt;=&lt;/span&gt;&amp;nbsp;&lt;span style=&quot;color: #e6db74&quot;&gt;&#39;bg-secondary&#39;&lt;/span&gt;;&lt;/div&gt;&lt;/div&gt;" style="rounded=1;whiteSpace=wrap;html=1;align=left;" vertex="1" parent="1">
          <mxGeometry x="180" y="310" width="530" height="110" as="geometry" />
        </mxCell>
        <mxCell id="grLJAO_GZmSJXpPG2jDG-37" value="" style="edgeStyle=orthogonalEdgeStyle;rounded=0;orthogonalLoop=1;jettySize=auto;html=1;fontColor=#000000;" edge="1" parent="1" source="grLJAO_GZmSJXpPG2jDG-17" target="grLJAO_GZmSJXpPG2jDG-19">
          <mxGeometry relative="1" as="geometry">
            <Array as="points">
              <mxPoint x="200" y="280" />
              <mxPoint x="360" y="280" />
            </Array>
          </mxGeometry>
        </mxCell>
        <mxCell id="grLJAO_GZmSJXpPG2jDG-17" value="&lt;span style=&quot;color: rgb(0 , 0 , 0) ; font-family: &amp;#34;helvetica&amp;#34; ; font-size: 12px ; font-style: normal ; font-weight: 400 ; letter-spacing: normal ; text-align: center ; text-indent: 0px ; text-transform: none ; word-spacing: 0px ; background-color: rgb(248 , 249 , 250) ; display: inline ; float: none&quot;&gt;אם היום פנוי וגם הוא לא בעבר&lt;/span&gt;" style="whiteSpace=wrap;html=1;rounded=1;" vertex="1" parent="1">
          <mxGeometry x="140" y="180" width="120" height="60" as="geometry" />
        </mxCell>
        <mxCell id="grLJAO_GZmSJXpPG2jDG-23" value="אל תעשה כלום" style="whiteSpace=wrap;html=1;rounded=1;" vertex="1" parent="1">
          <mxGeometry y="310" width="120" height="60" as="geometry" />
        </mxCell>
        <mxCell id="grLJAO_GZmSJXpPG2jDG-46" value="" style="edgeStyle=orthogonalEdgeStyle;rounded=0;orthogonalLoop=1;jettySize=auto;html=1;fontColor=#000000;" edge="1" parent="1" source="grLJAO_GZmSJXpPG2jDG-29" target="grLJAO_GZmSJXpPG2jDG-19">
          <mxGeometry relative="1" as="geometry">
            <Array as="points">
              <mxPoint x="490" y="280" />
              <mxPoint x="360" y="280" />
            </Array>
          </mxGeometry>
        </mxCell>
        <mxCell id="grLJAO_GZmSJXpPG2jDG-29" value="&lt;span style=&quot;background-color: rgb(40 , 41 , 35) ; font-family: &amp;#34;consolas&amp;#34; , &amp;#34;courier new&amp;#34; , monospace ; font-size: 14px ; color: rgb(253 , 151 , 31)&quot;&gt;this&lt;/span&gt;&lt;span style=&quot;background-color: rgb(40 , 41 , 35) ; color: rgb(248 , 248 , 242) ; font-family: &amp;#34;consolas&amp;#34; , &amp;#34;courier new&amp;#34; , monospace ; font-size: 14px&quot;&gt;._el.classList.&lt;/span&gt;&lt;span style=&quot;background-color: rgb(40 , 41 , 35) ; font-family: &amp;#34;consolas&amp;#34; , &amp;#34;courier new&amp;#34; , monospace ; font-size: 14px ; color: rgb(166 , 226 , 46)&quot;&gt;remove&lt;/span&gt;&lt;span style=&quot;background-color: rgb(40 , 41 , 35) ; color: rgb(248 , 248 , 242) ; font-family: &amp;#34;consolas&amp;#34; , &amp;#34;courier new&amp;#34; , monospace ; font-size: 14px&quot;&gt;(&lt;/span&gt;&lt;span style=&quot;background-color: rgb(40 , 41 , 35) ; font-family: &amp;#34;consolas&amp;#34; , &amp;#34;courier new&amp;#34; , monospace ; font-size: 14px ; color: rgb(230 , 219 , 116)&quot;&gt;&#39;bg-secondary&#39;&lt;/span&gt;&lt;span style=&quot;background-color: rgb(40 , 41 , 35) ; color: rgb(248 , 248 , 242) ; font-family: &amp;#34;consolas&amp;#34; , &amp;#34;courier new&amp;#34; , monospace ; font-size: 14px&quot;&gt;);&lt;/span&gt;&lt;br&gt;&lt;div style=&quot;color: rgb(248 , 248 , 242) ; background-color: rgb(40 , 41 , 35) ; font-family: &amp;#34;consolas&amp;#34; , &amp;#34;courier new&amp;#34; , monospace ; font-weight: normal ; font-size: 14px ; line-height: 19px&quot;&gt;&lt;div&gt;&lt;span style=&quot;color: #fd971f&quot;&gt;this&lt;/span&gt;&lt;span style=&quot;color: #f8f8f2&quot;&gt;.ordersService._newOrder.ShippingDate&amp;nbsp;&lt;/span&gt;&lt;span style=&quot;color: #f92672&quot;&gt;=&lt;/span&gt;&lt;span style=&quot;color: #f8f8f2&quot;&gt;&amp;nbsp;&lt;/span&gt;&lt;span style=&quot;color: #e6db74&quot;&gt;&#39;&#39;&lt;/span&gt;&lt;span style=&quot;color: #f8f8f2&quot;&gt;;&lt;/span&gt;&lt;/div&gt;&lt;/div&gt;&lt;br&gt;" style="whiteSpace=wrap;html=1;rounded=1;align=left;" vertex="1" parent="1">
          <mxGeometry x="305" y="180" width="370" height="70" as="geometry" />
        </mxCell>
      </root>
    </mxGraphModel>
  </diagram>
</mxfile>
